<svg xmlns="http://www.w3.org/2000/svg" xmlns:xlink="http://www.w3.org/1999/xlink" width="500" zoomAndPan="magnify" viewBox="0 0 375 374.999991" height="500" preserveAspectRatio="xMidYMid meet" version="1.0"><defs><clipPath id="98bdfd58c6"><path d="M 0 340 L 132 340 L 132 352.5 L 0 352.5 Z M 0 340 " clip-rule="nonzero"/></clipPath></defs><path fill="#dae4fe" d="M 318.203125 256.183594 C 303.195312 279.753906 276.710938 280.460938 252.960938 272.515625 C 250.3125 271.632812 247.753906 270.660156 245.191406 269.601562 C 220.738281 258.921875 197.078125 274.988281 175.980469 285.757812 C 173.507812 287.257812 170.859375 288.671875 168.210938 290.085938 C 149.496094 299.882812 127.511719 304.738281 112.855469 287.082031 C 103.941406 276.3125 106.058594 261.921875 106.058594 249.03125 C 105.972656 234.644531 100.851562 222.105469 93.171875 210.101562 C 82.929688 194.121094 69.15625 179.023438 65.625 159.867188 C 60.503906 132.410156 70.746094 102.925781 99.613281 94.625 C 117.976562 89.328125 136.605469 95.949219 154.792969 98.6875 C 169.621094 100.894531 184.71875 97.894531 198.578125 92.597656 C 201.140625 91.625 203.613281 90.652344 206.171875 89.59375 C 222.945312 82.707031 239.542969 74.585938 257.199219 71.851562 C 273 69.378906 287.304688 73.527344 293.304688 89.59375 C 298.605469 103.71875 294.894531 119.347656 297.191406 133.914062 C 298.515625 141.945312 301.515625 149.273438 305.226562 156.335938 C 311.492188 168.695312 319.527344 180.261719 323.144531 193.679688 C 324.207031 197.5625 325.089844 201.535156 325.792969 205.507812 C 328.53125 222.8125 327.648438 241.351562 318.203125 256.183594 Z M 318.203125 256.183594 " fill-opacity="1" fill-rule="nonzero"/><path fill="#dae4fe" d="M 112.769531 60.636719 C 112.414062 60.636719 112.0625 60.550781 111.796875 60.285156 C 106.234375 55.871094 99.4375 53.574219 92.289062 53.574219 C 85.136719 53.574219 78.425781 55.871094 72.777344 60.285156 C 72.070312 60.816406 71.011719 60.726562 70.480469 60.019531 C 69.953125 59.3125 70.039062 58.253906 70.746094 57.726562 C 76.925781 52.871094 84.34375 50.308594 92.289062 50.308594 C 100.234375 50.308594 107.558594 52.871094 113.828125 57.726562 C 114.535156 58.253906 114.710938 59.3125 114.09375 60.019531 C 113.738281 60.375 113.296875 60.636719 112.769531 60.636719 Z M 112.769531 60.636719 " fill-opacity="1" fill-rule="nonzero"/><path fill="#dae4fe" d="M 107.914062 66.996094 C 107.558594 66.996094 107.207031 66.90625 106.855469 66.640625 C 102.617188 63.285156 97.585938 61.519531 92.199219 61.519531 C 86.8125 61.519531 81.78125 63.285156 77.542969 66.640625 C 76.835938 67.171875 75.777344 67.082031 75.25 66.375 C 74.71875 65.671875 74.808594 64.609375 75.511719 64.082031 C 80.28125 60.285156 86.109375 58.253906 92.199219 58.253906 C 98.289062 58.253906 104.117188 60.285156 108.882812 64.082031 C 109.589844 64.609375 109.679688 65.671875 109.148438 66.375 C 108.882812 66.816406 108.441406 66.996094 107.914062 66.996094 Z M 107.914062 66.996094 " fill-opacity="1" fill-rule="nonzero"/><path fill="#dae4fe" d="M 81.695312 73.878906 C 81.253906 73.878906 80.722656 73.703125 80.457031 73.261719 C 79.929688 72.554688 80.015625 71.496094 80.722656 70.96875 C 83.988281 68.320312 88.136719 66.816406 92.289062 66.816406 C 96.523438 66.816406 100.585938 68.320312 103.851562 70.96875 C 104.558594 71.496094 104.648438 72.554688 104.117188 73.261719 C 103.585938 73.96875 102.527344 74.058594 101.820312 73.527344 C 99.171875 71.320312 95.730469 70.171875 92.289062 70.171875 C 88.84375 70.171875 85.402344 71.410156 82.753906 73.527344 C 82.488281 73.792969 82.046875 73.878906 81.695312 73.878906 Z M 81.695312 73.878906 " fill-opacity="1" fill-rule="nonzero"/><path fill="#dae4fe" d="M 96.523438 78.734375 C 96.523438 79.015625 96.496094 79.289062 96.445312 79.5625 C 96.390625 79.835938 96.308594 80.101562 96.203125 80.359375 C 96.097656 80.613281 95.964844 80.859375 95.8125 81.089844 C 95.65625 81.320312 95.480469 81.535156 95.285156 81.730469 C 95.085938 81.929688 94.871094 82.105469 94.640625 82.257812 C 94.410156 82.414062 94.164062 82.542969 93.910156 82.652344 C 93.652344 82.757812 93.386719 82.835938 93.113281 82.890625 C 92.839844 82.945312 92.566406 82.972656 92.289062 82.972656 C 92.007812 82.972656 91.734375 82.945312 91.460938 82.890625 C 91.1875 82.835938 90.921875 82.757812 90.664062 82.652344 C 90.410156 82.542969 90.164062 82.414062 89.933594 82.257812 C 89.703125 82.105469 89.488281 81.929688 89.289062 81.730469 C 89.09375 81.535156 88.917969 81.320312 88.765625 81.089844 C 88.609375 80.859375 88.480469 80.613281 88.371094 80.359375 C 88.265625 80.101562 88.183594 79.835938 88.132812 79.5625 C 88.078125 79.289062 88.050781 79.015625 88.050781 78.734375 C 88.050781 78.457031 88.078125 78.183594 88.132812 77.910156 C 88.183594 77.636719 88.265625 77.371094 88.371094 77.113281 C 88.480469 76.855469 88.609375 76.613281 88.765625 76.382812 C 88.917969 76.148438 89.09375 75.9375 89.289062 75.738281 C 89.488281 75.542969 89.703125 75.367188 89.933594 75.210938 C 90.164062 75.058594 90.410156 74.925781 90.664062 74.820312 C 90.921875 74.714844 91.1875 74.632812 91.460938 74.578125 C 91.734375 74.527344 92.007812 74.5 92.289062 74.5 C 92.566406 74.5 92.839844 74.527344 93.113281 74.578125 C 93.386719 74.632812 93.652344 74.714844 93.910156 74.820312 C 94.164062 74.925781 94.410156 75.058594 94.640625 75.210938 C 94.871094 75.367188 95.085938 75.542969 95.285156 75.738281 C 95.480469 75.9375 95.65625 76.148438 95.8125 76.382812 C 95.964844 76.613281 96.097656 76.855469 96.203125 77.113281 C 96.308594 77.371094 96.390625 77.636719 96.445312 77.910156 C 96.496094 78.183594 96.523438 78.457031 96.523438 78.734375 Z M 96.523438 78.734375 " fill-opacity="1" fill-rule="nonzero"/><path fill="#dae4fe" d="M 303.195312 339.789062 C 303.195312 339.878906 303.152344 339.96875 303.066406 340.058594 C 302.984375 340.152344 302.859375 340.242188 302.691406 340.332031 C 302.523438 340.421875 302.3125 340.511719 302.0625 340.601562 C 301.808594 340.695312 301.515625 340.78125 301.183594 340.871094 C 300.847656 340.960938 300.472656 341.050781 300.054688 341.140625 C 299.640625 341.226562 299.183594 341.316406 298.6875 341.402344 C 298.1875 341.488281 297.652344 341.574219 297.074219 341.660156 C 296.496094 341.746094 295.878906 341.832031 295.222656 341.914062 C 294.570312 342 293.875 342.082031 293.140625 342.164062 C 292.410156 342.246094 291.640625 342.328125 290.832031 342.410156 C 290.023438 342.488281 289.179688 342.570312 288.296875 342.648438 C 287.417969 342.726562 286.5 342.800781 285.546875 342.878906 C 284.597656 342.953125 283.609375 343.027344 282.589844 343.101562 C 281.570312 343.171875 280.515625 343.246094 279.425781 343.316406 C 278.339844 343.386719 277.222656 343.453125 276.070312 343.523438 C 274.921875 343.589844 273.738281 343.65625 272.527344 343.71875 C 271.316406 343.785156 270.074219 343.847656 268.804688 343.910156 C 267.535156 343.96875 266.238281 344.027344 264.914062 344.085938 C 263.589844 344.144531 262.238281 344.199219 260.863281 344.253906 C 259.484375 344.308594 258.085938 344.359375 256.660156 344.410156 C 255.234375 344.460938 253.789062 344.511719 252.320312 344.558594 C 250.847656 344.605469 249.359375 344.648438 247.847656 344.691406 C 246.335938 344.734375 244.804688 344.777344 243.257812 344.816406 C 241.707031 344.855469 240.140625 344.890625 238.558594 344.925781 C 236.976562 344.960938 235.378906 344.992188 233.765625 345.023438 C 232.152344 345.054688 230.523438 345.082031 228.886719 345.109375 C 227.246094 345.136719 225.59375 345.160156 223.933594 345.183594 C 222.269531 345.203125 220.597656 345.222656 218.917969 345.242188 C 217.238281 345.261719 215.550781 345.277344 213.855469 345.289062 C 212.160156 345.300781 210.460938 345.3125 208.753906 345.324219 C 207.046875 345.332031 205.339844 345.339844 203.628906 345.34375 C 201.917969 345.347656 200.203125 345.347656 198.492188 345.347656 C 196.777344 345.347656 195.066406 345.347656 193.355469 345.34375 C 191.640625 345.339844 189.933594 345.332031 188.226562 345.324219 C 186.523438 345.3125 184.824219 345.300781 183.128906 345.289062 C 181.433594 345.277344 179.746094 345.261719 178.066406 345.242188 C 176.382812 345.222656 174.710938 345.203125 173.050781 345.183594 C 171.386719 345.160156 169.738281 345.136719 168.097656 345.109375 C 166.457031 345.082031 164.832031 345.054688 163.21875 345.023438 C 161.605469 344.992188 160.007812 344.960938 158.421875 344.925781 C 156.839844 344.890625 155.273438 344.855469 153.726562 344.816406 C 152.175781 344.777344 150.644531 344.734375 149.132812 344.691406 C 147.625 344.648438 146.132812 344.605469 144.664062 344.558594 C 143.191406 344.511719 141.746094 344.460938 140.320312 344.410156 C 138.898438 344.359375 137.496094 344.308594 136.121094 344.253906 C 134.742188 344.199219 133.394531 344.144531 132.066406 344.085938 C 130.742188 344.027344 129.445312 343.96875 128.175781 343.910156 C 126.90625 343.847656 125.667969 343.785156 124.453125 343.71875 C 123.242188 343.65625 122.0625 343.589844 120.910156 343.523438 C 119.761719 343.453125 118.640625 343.386719 117.554688 343.316406 C 116.46875 343.246094 115.414062 343.171875 114.394531 343.101562 C 113.371094 343.027344 112.386719 342.953125 111.433594 342.878906 C 110.480469 342.800781 109.566406 342.726562 108.683594 342.648438 C 107.804688 342.570312 106.960938 342.488281 106.152344 342.410156 C 105.34375 342.328125 104.574219 342.246094 103.839844 342.164062 C 103.109375 342.082031 102.414062 342 101.757812 341.914062 C 101.101562 341.832031 100.484375 341.746094 99.910156 341.660156 C 99.332031 341.574219 98.792969 341.488281 98.296875 341.402344 C 97.800781 341.316406 97.34375 341.226562 96.925781 341.140625 C 96.507812 341.050781 96.132812 340.960938 95.800781 340.871094 C 95.464844 340.78125 95.171875 340.695312 94.921875 340.601562 C 94.671875 340.511719 94.460938 340.421875 94.292969 340.332031 C 94.125 340.242188 94 340.152344 93.914062 340.058594 C 93.832031 339.96875 93.789062 339.878906 93.789062 339.789062 C 93.789062 339.695312 93.832031 339.605469 93.914062 339.515625 C 94 339.421875 94.125 339.332031 94.292969 339.242188 C 94.460938 339.152344 94.671875 339.0625 94.921875 338.972656 C 95.171875 338.882812 95.464844 338.792969 95.800781 338.703125 C 96.132812 338.613281 96.507812 338.523438 96.925781 338.4375 C 97.34375 338.347656 97.800781 338.261719 98.296875 338.171875 C 98.792969 338.085938 99.332031 338 99.910156 337.914062 C 100.484375 337.828125 101.101562 337.742188 101.757812 337.660156 C 102.414062 337.574219 103.109375 337.492188 103.839844 337.410156 C 104.574219 337.328125 105.34375 337.246094 106.152344 337.164062 C 106.960938 337.085938 107.804688 337.007812 108.683594 336.929688 C 109.566406 336.851562 110.480469 336.773438 111.433594 336.699219 C 112.386719 336.621094 113.371094 336.546875 114.394531 336.472656 C 115.414062 336.402344 116.46875 336.328125 117.554688 336.257812 C 118.640625 336.1875 119.761719 336.121094 120.910156 336.050781 C 122.0625 335.984375 123.242188 335.917969 124.453125 335.855469 C 125.667969 335.789062 126.90625 335.726562 128.175781 335.667969 C 129.445312 335.605469 130.742188 335.546875 132.066406 335.488281 C 133.394531 335.429688 134.742188 335.375 136.121094 335.320312 C 137.496094 335.265625 138.898438 335.214844 140.320312 335.164062 C 141.746094 335.113281 143.191406 335.0625 144.664062 335.015625 C 146.132812 334.96875 147.625 334.925781 149.132812 334.882812 C 150.644531 334.839844 152.175781 334.796875 153.726562 334.757812 C 155.273438 334.71875 156.839844 334.683594 158.421875 334.648438 C 160.007812 334.613281 161.605469 334.582031 163.21875 334.550781 C 164.832031 334.519531 166.457031 334.492188 168.097656 334.464844 C 169.738281 334.4375 171.386719 334.414062 173.050781 334.390625 C 174.710938 334.371094 176.382812 334.351562 178.066406 334.332031 C 179.746094 334.316406 181.433594 334.300781 183.128906 334.285156 C 184.824219 334.273438 186.523438 334.261719 188.226562 334.253906 C 189.933594 334.242188 191.640625 334.238281 193.355469 334.230469 C 195.066406 334.226562 196.777344 334.226562 198.492188 334.226562 C 200.203125 334.226562 201.917969 334.226562 203.628906 334.230469 C 205.339844 334.238281 207.046875 334.242188 208.753906 334.253906 C 210.460938 334.261719 212.160156 334.273438 213.855469 334.285156 C 215.550781 334.300781 217.238281 334.316406 218.917969 334.332031 C 220.597656 334.351562 222.269531 334.371094 223.933594 334.390625 C 225.59375 334.414062 227.246094 334.4375 228.886719 334.464844 C 230.523438 334.492188 232.152344 334.519531 233.765625 334.550781 C 235.378906 334.582031 236.976562 334.613281 238.558594 334.648438 C 240.140625 334.683594 241.707031 334.71875 243.257812 334.757812 C 244.804688 334.796875 246.335938 334.839844 247.847656 334.882812 C 249.359375 334.925781 250.847656 334.96875 252.320312 335.015625 C 253.789062 335.0625 255.234375 335.113281 256.660156 335.164062 C 258.085938 335.214844 259.484375 335.265625 260.863281 335.320312 C 262.238281 335.375 263.589844 335.429688 264.914062 335.488281 C 266.238281 335.546875 267.535156 335.605469 268.804688 335.667969 C 270.074219 335.726562 271.316406 335.789062 272.527344 335.855469 C 273.738281 335.917969 274.921875 335.984375 276.070312 336.050781 C 277.222656 336.121094 278.339844 336.1875 279.425781 336.257812 C 280.515625 336.328125 281.570312 336.402344 282.589844 336.472656 C 283.609375 336.546875 284.597656 336.621094 285.546875 336.699219 C 286.5 336.773438 287.417969 336.851562 288.296875 336.929688 C 289.179688 337.007812 290.023438 337.085938 290.832031 337.164062 C 291.640625 337.246094 292.410156 337.328125 293.140625 337.410156 C 293.875 337.492188 294.570312 337.574219 295.222656 337.660156 C 295.878906 337.742188 296.496094 337.828125 297.074219 337.914062 C 297.652344 338 298.1875 338.085938 298.6875 338.171875 C 299.183594 338.261719 299.640625 338.347656 300.054688 338.4375 C 300.472656 338.523438 300.847656 338.613281 301.183594 338.703125 C 301.515625 338.792969 301.808594 338.882812 302.0625 338.972656 C 302.3125 339.0625 302.523438 339.152344 302.691406 339.242188 C 302.859375 339.332031 302.984375 339.421875 303.066406 339.515625 C 303.152344 339.605469 303.195312 339.695312 303.195312 339.789062 Z M 303.195312 339.789062 " fill-opacity="1" fill-rule="nonzero"/><path fill="#000000" d="M 283.332031 157.925781 L 187.898438 294.5 L 283.332031 294.5 L 283.332031 338.726562 L 126.539062 338.726562 L 126.539062 297.589844 L 221.355469 161.015625 L 126.539062 161.015625 L 126.539062 116.785156 L 283.332031 116.785156 Z M 283.332031 157.925781 " fill-opacity="1" fill-rule="nonzero"/><path fill="#a3e635" d="M 269.824219 157.925781 L 174.390625 294.5 L 269.824219 294.5 L 269.824219 338.726562 L 113.035156 338.726562 L 113.035156 297.589844 L 207.847656 161.015625 L 113.035156 161.015625 L 113.035156 116.785156 L 269.824219 116.785156 Z M 269.824219 157.925781 " fill-opacity="1" fill-rule="nonzero"/><path stroke-linecap="butt" transform="matrix(0.882825, 0, 0, 0.882825, -16.741569, -11.135632)" fill="none" stroke-linejoin="miter" d="M 268.601694 154.598351 L 316.101022 154.598351 " stroke="#dae4fe" stroke-width="1" stroke-opacity="1" stroke-miterlimit="10"/><path stroke-linecap="butt" transform="matrix(0.882825, 0, 0, 0.882825, -16.741569, -11.135632)" fill="none" stroke-linejoin="miter" d="M 260.000046 209.601998 L 180.098521 321.401301 " stroke="#dae4fe" stroke-width="1" stroke-opacity="1" stroke-miterlimit="10"/><g clip-path="url(#98bdfd58c6)"><path fill="#dae4fe" d="M 131.925781 346.496094 C 131.925781 346.695312 131.820312 346.890625 131.609375 347.085938 C 131.398438 347.28125 131.082031 347.476562 130.660156 347.667969 C 130.238281 347.859375 129.714844 348.050781 129.089844 348.238281 C 128.464844 348.425781 127.738281 348.613281 126.914062 348.792969 C 126.085938 348.976562 125.167969 349.152344 124.148438 349.328125 C 123.132812 349.5 122.023438 349.667969 120.828125 349.832031 C 119.628906 349.996094 118.34375 350.152344 116.976562 350.304688 C 115.609375 350.457031 114.160156 350.601562 112.636719 350.742188 C 111.113281 350.878906 109.515625 351.011719 107.847656 351.136719 C 106.179688 351.261719 104.449219 351.378906 102.65625 351.488281 C 100.863281 351.597656 99.015625 351.699219 97.113281 351.792969 C 95.210938 351.882812 93.261719 351.96875 91.269531 352.042969 C 89.277344 352.117188 87.25 352.183594 85.183594 352.242188 C 83.121094 352.296875 81.03125 352.347656 78.914062 352.382812 C 76.800781 352.421875 74.667969 352.453125 72.523438 352.472656 C 70.375 352.492188 68.222656 352.5 66.066406 352.5 C 63.910156 352.5 61.757812 352.492188 59.613281 352.472656 C 57.464844 352.453125 55.335938 352.421875 53.21875 352.382812 C 51.101562 352.347656 49.015625 352.296875 46.949219 352.242188 C 44.886719 352.183594 42.855469 352.117188 40.863281 352.042969 C 38.871094 351.96875 36.925781 351.882812 35.023438 351.792969 C 33.121094 351.699219 31.273438 351.597656 29.476562 351.488281 C 27.683594 351.378906 25.953125 351.261719 24.285156 351.136719 C 22.621094 351.011719 21.023438 350.878906 19.5 350.742188 C 17.972656 350.601562 16.527344 350.457031 15.15625 350.304688 C 13.789062 350.152344 12.507812 349.996094 11.308594 349.832031 C 10.109375 349.667969 9.003906 349.5 7.984375 349.328125 C 6.96875 349.152344 6.046875 348.976562 5.222656 348.792969 C 4.394531 348.613281 3.671875 348.425781 3.042969 348.238281 C 2.417969 348.050781 1.894531 347.859375 1.472656 347.667969 C 1.054688 347.476562 0.738281 347.28125 0.527344 347.085938 C 0.3125 346.890625 0.207031 346.695312 0.207031 346.496094 C 0.207031 346.300781 0.3125 346.105469 0.527344 345.910156 C 0.738281 345.710938 1.054688 345.519531 1.472656 345.324219 C 1.894531 345.132812 2.417969 344.941406 3.042969 344.753906 C 3.671875 344.566406 4.394531 344.382812 5.222656 344.199219 C 6.046875 344.019531 6.96875 343.839844 7.984375 343.667969 C 9.003906 343.492188 10.109375 343.324219 11.308594 343.160156 C 12.507812 343 13.789062 342.839844 15.15625 342.6875 C 16.527344 342.535156 17.972656 342.390625 19.5 342.25 C 21.023438 342.113281 22.621094 341.980469 24.285156 341.855469 C 25.953125 341.730469 27.683594 341.613281 29.476562 341.503906 C 31.273438 341.394531 33.121094 341.296875 35.023438 341.203125 C 36.925781 341.109375 38.871094 341.027344 40.863281 340.949219 C 42.855469 340.875 44.886719 340.808594 46.949219 340.753906 C 49.015625 340.695312 51.101562 340.648438 53.21875 340.609375 C 55.335938 340.570312 57.464844 340.542969 59.613281 340.523438 C 61.757812 340.503906 63.910156 340.492188 66.066406 340.492188 C 68.222656 340.492188 70.375 340.503906 72.523438 340.523438 C 74.667969 340.542969 76.800781 340.570312 78.914062 340.609375 C 81.03125 340.648438 83.121094 340.695312 85.183594 340.753906 C 87.25 340.808594 89.277344 340.875 91.269531 340.949219 C 93.261719 341.027344 95.210938 341.109375 97.113281 341.203125 C 99.015625 341.296875 100.863281 341.394531 102.65625 341.503906 C 104.449219 341.613281 106.179688 341.730469 107.847656 341.855469 C 109.515625 341.980469 111.113281 342.113281 112.636719 342.25 C 114.160156 342.390625 115.609375 342.535156 116.976562 342.6875 C 118.34375 342.839844 119.628906 343 120.828125 343.160156 C 122.023438 343.324219 123.132812 343.492188 124.148438 343.667969 C 125.167969 343.839844 126.085938 344.019531 126.914062 344.199219 C 127.738281 344.382812 128.464844 344.566406 129.089844 344.753906 C 129.714844 344.941406 130.238281 345.132812 130.660156 345.324219 C 131.082031 345.519531 131.398438 345.710938 131.609375 345.910156 C 131.820312 346.105469 131.925781 346.300781 131.925781 346.496094 Z M 131.925781 346.496094 " fill-opacity="1" fill-rule="nonzero"/></g><path fill="#dae4fe" d="M 373.910156 346.054688 C 373.910156 346.234375 373.8125 346.414062 373.621094 346.59375 C 373.429688 346.769531 373.140625 346.949219 372.761719 347.125 C 372.378906 347.300781 371.902344 347.472656 371.335938 347.644531 C 370.765625 347.816406 370.109375 347.984375 369.359375 348.148438 C 368.609375 348.316406 367.773438 348.476562 366.851562 348.636719 C 365.929688 348.792969 364.921875 348.945312 363.835938 349.097656 C 362.75 349.246094 361.582031 349.390625 360.34375 349.527344 C 359.101562 349.667969 357.789062 349.800781 356.402344 349.925781 C 355.019531 350.050781 353.570312 350.171875 352.058594 350.285156 C 350.542969 350.398438 348.972656 350.507812 347.347656 350.605469 C 345.71875 350.707031 344.042969 350.796875 342.316406 350.882812 C 340.589844 350.96875 338.820312 351.042969 337.011719 351.113281 C 335.203125 351.179688 333.363281 351.242188 331.492188 351.292969 C 329.617188 351.34375 327.722656 351.390625 325.800781 351.421875 C 323.882812 351.457031 321.949219 351.484375 320 351.503906 C 318.050781 351.519531 316.097656 351.527344 314.140625 351.527344 C 312.183594 351.527344 310.230469 351.519531 308.28125 351.503906 C 306.335938 351.484375 304.402344 351.457031 302.480469 351.421875 C 300.5625 351.390625 298.664062 351.34375 296.792969 351.292969 C 294.917969 351.242188 293.078125 351.179688 291.269531 351.113281 C 289.460938 351.042969 287.695312 350.96875 285.96875 350.882812 C 284.242188 350.796875 282.5625 350.707031 280.9375 350.605469 C 279.308594 350.507812 277.738281 350.398438 276.226562 350.285156 C 274.710938 350.171875 273.261719 350.050781 271.878906 349.925781 C 270.496094 349.800781 269.183594 349.667969 267.941406 349.527344 C 266.699219 349.390625 265.535156 349.246094 264.445312 349.097656 C 263.359375 348.945312 262.355469 348.792969 261.429688 348.636719 C 260.507812 348.476562 259.671875 348.316406 258.921875 348.148438 C 258.175781 347.984375 257.515625 347.816406 256.949219 347.644531 C 256.378906 347.472656 255.902344 347.300781 255.523438 347.125 C 255.140625 346.949219 254.855469 346.769531 254.660156 346.59375 C 254.46875 346.414062 254.375 346.234375 254.375 346.054688 C 254.375 345.875 254.46875 345.695312 254.660156 345.519531 C 254.855469 345.339844 255.140625 345.164062 255.523438 344.988281 C 255.902344 344.8125 256.378906 344.636719 256.949219 344.464844 C 257.515625 344.292969 258.175781 344.125 258.921875 343.960938 C 259.671875 343.796875 260.507812 343.632812 261.429688 343.476562 C 262.355469 343.316406 263.359375 343.164062 264.445312 343.015625 C 265.535156 342.867188 266.699219 342.722656 267.941406 342.582031 C 269.183594 342.445312 270.496094 342.3125 271.878906 342.183594 C 273.261719 342.058594 274.710938 341.9375 276.226562 341.824219 C 277.738281 341.710938 279.308594 341.605469 280.9375 341.503906 C 282.5625 341.40625 284.242188 341.3125 285.96875 341.226562 C 287.695312 341.144531 289.460938 341.066406 291.269531 341 C 293.078125 340.929688 294.917969 340.871094 296.792969 340.816406 C 298.664062 340.765625 300.5625 340.722656 302.480469 340.6875 C 304.402344 340.652344 306.335938 340.625 308.28125 340.609375 C 310.230469 340.589844 312.183594 340.582031 314.140625 340.582031 C 316.097656 340.582031 318.050781 340.589844 320 340.609375 C 321.949219 340.625 323.882812 340.652344 325.800781 340.6875 C 327.722656 340.722656 329.617188 340.765625 331.492188 340.816406 C 333.363281 340.871094 335.203125 340.929688 337.011719 341 C 338.820312 341.066406 340.589844 341.144531 342.316406 341.226562 C 344.042969 341.3125 345.71875 341.40625 347.347656 341.503906 C 348.972656 341.605469 350.542969 341.710938 352.058594 341.824219 C 353.570312 341.9375 355.019531 342.058594 356.402344 342.183594 C 357.789062 342.3125 359.101562 342.445312 360.34375 342.582031 C 361.582031 342.722656 362.75 342.867188 363.835938 343.015625 C 364.921875 343.164062 365.929688 343.316406 366.851562 343.476562 C 367.773438 343.632812 368.609375 343.796875 369.359375 343.960938 C 370.109375 344.125 370.765625 344.292969 371.335938 344.464844 C 371.902344 344.636719 372.378906 344.8125 372.761719 344.988281 C 373.140625 345.164062 373.429688 345.339844 373.621094 345.519531 C 373.8125 345.695312 373.910156 345.875 373.910156 346.054688 Z M 373.910156 346.054688 " fill-opacity="1" fill-rule="nonzero"/><path fill="#ecc351" d="M 95.90625 275.164062 C 85.929688 267.75 85.84375 316.214844 88.316406 329.898438 C 90.785156 343.582031 93.789062 334.402344 96.171875 312.597656 C 98.554688 290.878906 99.878906 278.078125 95.90625 275.164062 Z M 95.90625 275.164062 " fill-opacity="1" fill-rule="nonzero"/><path fill="#ecc351" d="M 86.8125 328.574219 L 86.371094 333.609375 L 94.757812 334.050781 L 94.582031 329.105469 Z M 86.8125 328.574219 " fill-opacity="1" fill-rule="nonzero"/><path fill="#000000" d="M 94.9375 333.960938 C 94.9375 333.960938 96.4375 337.050781 101.558594 341.199219 C 106.675781 345.347656 108.089844 344.464844 108.179688 345.96875 C 108.265625 347.46875 85.226562 345.527344 85.226562 345.527344 L 86.285156 333.34375 C 86.285156 333.34375 94.9375 333.609375 94.9375 333.960938 Z M 94.9375 333.960938 " fill-opacity="1" fill-rule="nonzero"/><path fill="#ecc351" d="M 68.628906 224.3125 C 58.296875 222.636719 58.828125 233.671875 59.09375 242.410156 C 60.0625 256.273438 57.328125 272.515625 62.269531 275.429688 C 75.601562 282.492188 77.632812 229.699219 74.1875 226.609375 C 72.511719 225.195312 71.980469 225.375 68.628906 224.3125 Z M 68.628906 224.3125 " fill-opacity="1" fill-rule="nonzero"/><path fill="#ecc351" d="M 81.957031 228.375 C 71.628906 230.050781 75.601562 240.382812 78.605469 248.589844 C 83.902344 261.480469 86.550781 277.636719 92.109375 278.871094 C 107.03125 281.34375 92.199219 230.671875 87.875 228.816406 C 85.929688 228.023438 85.488281 228.285156 81.957031 228.375 Z M 81.957031 228.375 " fill-opacity="1" fill-rule="nonzero"/><path fill="#ecc351" d="M 67.65625 273.3125 C 61.566406 262.453125 41.703125 306.679688 38.347656 320.1875 C 34.992188 333.695312 41.523438 326.546875 52.558594 307.652344 C 63.59375 288.761719 70.039062 277.636719 67.65625 273.3125 Z M 67.65625 273.3125 " fill-opacity="1" fill-rule="nonzero"/><path fill="#ecc351" d="M 37.109375 319.835938 L 34.902344 324.335938 L 42.144531 327.871094 L 44.171875 323.367188 Z M 37.109375 319.835938 " fill-opacity="1" fill-rule="nonzero"/><path fill="#000000" d="M 42.847656 327.78125 C 42.847656 327.78125 42.9375 331.222656 45.9375 337.140625 C 48.941406 342.964844 50.53125 342.789062 50 344.203125 C 49.46875 345.613281 29.253906 334.492188 29.253906 334.492188 L 35.167969 323.808594 C 35.167969 323.71875 42.9375 327.515625 42.847656 327.78125 Z M 42.847656 327.78125 " fill-opacity="1" fill-rule="nonzero"/><path fill="#000000" d="M 92.289062 229.699219 C 92.289062 229.699219 101.46875 264.835938 102.175781 273.398438 C 102.882812 281.960938 95.90625 330.164062 95.90625 330.164062 L 85.046875 329.636719 C 85.046875 329.636719 85.3125 289.289062 86.902344 278.167969 L 77.015625 249.210938 C 77.015625 249.210938 72.421875 274.28125 70.746094 279.3125 C 68.628906 285.582031 44.792969 324.957031 44.792969 324.957031 L 35.964844 320.277344 C 35.964844 320.277344 44.085938 292.554688 57.328125 273.132812 C 57.328125 273.132812 53.796875 229.347656 59.976562 224.492188 C 66.066406 219.636719 92.289062 229.699219 92.289062 229.699219 Z M 92.289062 229.699219 " fill-opacity="1" fill-rule="nonzero"/><path fill="#ecc351" d="M 86.285156 178.320312 C 81.695312 183.4375 98.46875 216.722656 102.351562 213.808594 C 110.03125 212.308594 95.289062 171.609375 86.285156 178.320312 Z M 86.285156 178.320312 " fill-opacity="1" fill-rule="nonzero"/><path fill="#ecc351" d="M 100.851562 193.503906 L 104.824219 203.65625 C 104.824219 203.65625 116.476562 198.710938 119.035156 197.742188 C 121.597656 196.769531 133.25 192.621094 133.25 192.621094 L 135.371094 197.121094 C 135.371094 197.121094 122.832031 205.421875 118.859375 207.628906 C 114.886719 209.835938 104.46875 215.75 100.234375 213.984375 C 95.996094 212.21875 90.34375 197.828125 90.34375 197.828125 Z M 100.851562 193.503906 " fill-opacity="1" fill-rule="nonzero"/><path fill="#ecc351" d="M 99.351562 212.660156 C 100.054688 213.71875 101.292969 214.160156 102.527344 214.074219 C 112.152344 213.367188 143.316406 192.972656 140.929688 191.382812 C 139.960938 189.707031 94.054688 204.980469 99.351562 212.660156 Z M 99.351562 212.660156 " fill-opacity="1" fill-rule="nonzero"/><path fill="#ecc351" d="M 145.34375 187.941406 C 145.34375 188.03125 145.34375 188.03125 145.433594 188.117188 L 145.34375 190.324219 C 145.433594 190.679688 144.992188 191.738281 144.726562 192.003906 L 143.667969 193.328125 C 142.519531 194.472656 141.195312 195.445312 139.785156 196.0625 L 136.164062 197.035156 L 135.371094 197.210938 L 134.929688 196.238281 L 133.605469 193.328125 L 133.25 192.707031 L 133.339844 192.355469 L 134.308594 190.058594 C 134.574219 189.355469 135.015625 188.824219 135.632812 188.292969 L 138.546875 186.882812 C 138.546875 186.882812 138.722656 187.589844 138.019531 188.382812 C 137.664062 188.734375 137.488281 189.441406 137.3125 190.058594 L 138.8125 189.089844 L 142.785156 186.96875 C 143.84375 186.441406 144.992188 186.96875 145.34375 187.941406 Z M 145.34375 187.941406 " fill-opacity="1" fill-rule="nonzero"/><path fill="#000000" d="M 89.992188 198.535156 C 88.136719 194.652344 81.78125 179.378906 86.902344 176.90625 C 93.082031 173.90625 96.789062 183.261719 97.585938 184.761719 C 98.378906 186.265625 101.203125 193.503906 101.203125 193.503906 Z M 89.992188 198.535156 " fill-opacity="1" fill-rule="nonzero"/><path fill="#000000" d="M 59.09375 224.226562 C 58.738281 227.050781 92.109375 232.613281 92.289062 229.699219 C 92.375 218.664062 94.054688 209.21875 95.378906 201.273438 C 95.554688 199.949219 95.730469 198.710938 95.90625 197.476562 C 97.671875 185.117188 97.230469 177.082031 85.226562 173.285156 L 75.160156 170.992188 C 62.269531 170.992188 61.386719 175.847656 61.566406 187.324219 C 61.566406 191.121094 61.742188 195.535156 61.652344 200.832031 C 61.476562 207.363281 60.859375 215.132812 59.09375 224.226562 Z M 59.09375 224.226562 " fill-opacity="1" fill-rule="nonzero"/><path fill="#ecc351" d="M 76.484375 167.371094 C 76.042969 170.375 74.984375 170.902344 75.511719 172.402344 C 76.132812 174.699219 83.8125 181.496094 84.960938 176.289062 L 85.046875 175.847656 L 85.753906 170.550781 C 91.582031 172.84375 90.257812 163.929688 91.40625 154.746094 C 86.460938 142.652344 68.980469 147.066406 76.925781 164.105469 C 76.925781 164.015625 76.835938 164.371094 76.484375 167.371094 Z M 76.484375 167.371094 " fill-opacity="1" fill-rule="nonzero"/><path fill="#000000" d="M 76.925781 164.015625 C 77.191406 164.015625 76.574219 157.835938 77.898438 157.925781 C 78.867188 158.011719 79.132812 159.515625 79.132812 160.925781 L 80.546875 160.574219 C 80.371094 157.835938 80.632812 154.660156 81.515625 153.863281 C 83.019531 152.539062 86.550781 154.835938 90.257812 155.71875 C 92.640625 156.246094 93.613281 153.597656 93.964844 151.570312 C 94.230469 150.15625 93.613281 148.65625 92.375 147.859375 C 89.640625 146.09375 86.195312 147.066406 82.046875 146.714844 C 76.925781 146.273438 75.867188 149.363281 74.808594 153.6875 C 73.746094 158.191406 76.660156 164.105469 76.925781 164.015625 Z M 76.925781 164.015625 " fill-opacity="1" fill-rule="nonzero"/><path fill="#ecc351" d="M 66.15625 173.816406 C 59.535156 175.671875 55.648438 212.75 60.417969 212.308594 C 67.832031 215.21875 77.457031 173.023438 66.15625 173.816406 Z M 66.15625 173.816406 " fill-opacity="1" fill-rule="nonzero"/><path fill="#ecc351" d="M 70.746094 194.386719 L 68.007812 206.921875 C 68.007812 206.921875 80.28125 216.191406 83.195312 218.3125 C 86.109375 220.429688 93.875 227.402344 93.875 227.402344 L 91.050781 231.464844 C 91.050781 231.464844 63.332031 218.398438 59.445312 211.867188 C 56.445312 206.832031 59.179688 192.53125 59.179688 192.53125 Z M 70.746094 194.386719 " fill-opacity="1" fill-rule="nonzero"/><path fill="#ecc351" d="M 59.621094 207.980469 C 59.09375 209.128906 59.269531 210.453125 59.976562 211.511719 C 65.449219 219.546875 98.554688 236.320312 98.730469 233.496094 C 99.703125 231.730469 63.59375 199.507812 59.621094 207.980469 Z M 59.621094 207.980469 " fill-opacity="1" fill-rule="nonzero"/><path fill="#ecc351" d="M 104.027344 235.527344 C 104.027344 235.613281 103.941406 235.613281 103.941406 235.613281 L 102 236.671875 C 101.734375 236.9375 100.585938 237.113281 100.234375 237.027344 L 98.554688 236.761719 C 96.964844 236.410156 95.554688 235.703125 94.230469 234.730469 L 91.667969 232.082031 L 91.140625 231.554688 L 91.757812 230.671875 L 93.613281 228.023438 L 94.054688 227.402344 L 94.40625 227.316406 L 96.878906 226.960938 C 97.585938 226.875 98.378906 226.960938 98.996094 227.226562 L 101.644531 229.082031 C 101.644531 229.082031 101.117188 229.523438 100.054688 229.347656 C 99.613281 229.257812 98.910156 229.347656 98.289062 229.523438 L 99.878906 230.40625 L 103.675781 232.789062 C 104.46875 233.40625 104.648438 234.730469 104.027344 235.527344 Z M 104.027344 235.527344 " fill-opacity="1" fill-rule="nonzero"/><path fill="#000000" d="M 58.121094 192.707031 C 58.738281 188.472656 62.09375 172.140625 67.746094 172.84375 C 74.542969 173.640625 72.601562 183.527344 72.421875 185.203125 C 72.246094 186.882812 70.746094 194.472656 70.746094 194.472656 Z M 58.121094 192.707031 " fill-opacity="1" fill-rule="nonzero"/><path fill="#ecc351" d="M 315.113281 160.042969 C 317.40625 167.195312 286.949219 191.207031 284.476562 186.527344 C 277.414062 181.585938 309.109375 149.273438 315.113281 160.042969 Z M 315.113281 160.042969 " fill-opacity="1" fill-rule="nonzero"/><path fill="#000000" d="M 324.46875 159.957031 C 309.640625 150.507812 300.191406 162.605469 292.070312 170.109375 L 300.457031 179.203125 Z M 324.46875 159.957031 " fill-opacity="1" fill-rule="nonzero"/><path fill="#ecc351" d="M 312.90625 209.835938 C 323.941406 210.277344 318.378906 220.519531 316.261719 229.523438 C 312.375 243.734375 314.316406 262.1875 308.578125 264.128906 C 293.21875 268.632812 298.601562 214.335938 302.929688 211.867188 C 304.960938 210.804688 309.199219 210.1875 312.90625 209.835938 Z M 312.90625 209.835938 " fill-opacity="1" fill-rule="nonzero"/><path fill="#ecc351" d="M 302.398438 259.363281 C 313.171875 251.769531 311.933594 315.246094 308.933594 329.636719 C 305.929688 344.113281 303.019531 322.128906 301.074219 299.089844 C 299.132812 276.046875 298.164062 262.363281 302.398438 259.363281 Z M 302.398438 259.363281 " fill-opacity="1" fill-rule="nonzero"/><path fill="#ecc351" d="M 310.699219 327.25 L 310.523438 333.609375 L 302.578125 333.695312 L 302.578125 327.957031 Z M 310.699219 327.25 " fill-opacity="1" fill-rule="nonzero"/><path fill="#000000" d="M 302.578125 333.695312 C 302.578125 333.695312 300.191406 336.519531 294.628906 340.140625 C 289.070312 343.761719 287.65625 342.964844 287.480469 344.378906 C 287.390625 345.703125 311.140625 344.554688 311.140625 344.554688 L 310.609375 333.34375 C 310.699219 333.34375 302.578125 333.429688 302.578125 333.695312 Z M 302.578125 333.695312 " fill-opacity="1" fill-rule="nonzero"/><path fill="#ecc351" d="M 324.734375 210.101562 C 335.59375 207.980469 335.503906 219.636719 335.503906 228.90625 C 334.976562 243.648438 338.332031 260.6875 333.210938 263.953125 C 319.351562 271.898438 315.378906 216.015625 318.996094 212.660156 C 320.585938 211.160156 321.203125 211.246094 324.734375 210.101562 Z M 324.734375 210.101562 " fill-opacity="1" fill-rule="nonzero"/><path fill="#ecc351" d="M 327.382812 259.363281 C 338.152344 251.769531 336.917969 315.246094 333.917969 329.636719 C 330.914062 344.113281 328 322.128906 326.058594 299.089844 C 324.117188 275.960938 323.144531 262.363281 327.382812 259.363281 Z M 327.382812 259.363281 " fill-opacity="1" fill-rule="nonzero"/><path fill="#ecc351" d="M 335.242188 329.898438 L 335.242188 335.195312 L 326.765625 335.285156 L 326.855469 330.605469 Z M 335.242188 329.898438 " fill-opacity="1" fill-rule="nonzero"/><path fill="#000000" d="M 335.328125 334.492188 C 335.417969 336.34375 337.625 343.320312 337.710938 344.90625 C 324.207031 345.171875 324.558594 347.203125 326.765625 334.667969 Z M 335.328125 334.492188 " fill-opacity="1" fill-rule="nonzero"/><path fill="#a3e635" d="M 299.398438 214.160156 C 299.398438 214.160156 295.511719 258.832031 295.777344 265.453125 C 295.953125 272.074219 302.3125 328.664062 302.3125 328.664062 L 310.964844 328.3125 C 310.964844 328.3125 314.496094 296.441406 311.757812 265.804688 L 316.789062 237.378906 L 326.5 330.605469 L 335.683594 330.605469 C 335.683594 330.605469 336.035156 273.574219 336.566406 264.570312 C 337.183594 255.566406 335.0625 212.925781 335.0625 212.925781 Z M 299.398438 214.160156 " fill-opacity="1" fill-rule="nonzero"/><path fill="#000000" d="M 299.398438 214.160156 C 299.308594 216.367188 316.964844 216.28125 327.472656 215.042969 C 331.886719 214.515625 335.0625 213.808594 335.0625 212.925781 C 334.003906 196.769531 335.769531 184.761719 337.007812 176.023438 C 338.949219 162.339844 339.476562 156.511719 325.175781 154.746094 L 314.230469 155.804688 C 291.980469 159.777344 303.28125 181.320312 299.398438 214.160156 Z M 299.398438 214.160156 " fill-opacity="1" fill-rule="nonzero"/><path fill="#ecc351" d="M 314.230469 152.714844 L 314.230469 154.480469 L 314.316406 158.894531 C 314.847656 164.546875 323.765625 158.453125 324.734375 156.070312 C 325.441406 154.570312 324.382812 153.777344 324.382812 150.597656 C 324.382812 147.417969 324.382812 147.066406 324.382812 147.066406 C 335.0625 130.117188 317.230469 123.230469 310.433594 135.238281 C 310.433594 139.210938 309.992188 143.003906 309.992188 146.09375 C 309.816406 150.773438 310.433594 153.6875 314.230469 152.714844 Z M 314.230469 152.714844 " fill-opacity="1" fill-rule="nonzero"/><path fill="#ecc351" d="M 334.800781 158.277344 C 342.039062 158.894531 353.339844 196.769531 348.21875 197.300781 C 341.242188 201.714844 322.96875 159.601562 334.800781 158.277344 Z M 334.800781 158.277344 " fill-opacity="1" fill-rule="nonzero"/><path fill="#ecc351" d="M 336.386719 185.292969 L 340.097656 194.03125 L 334.800781 216.28125 L 342.125 219.636719 C 342.125 219.636719 349.101562 201.976562 349.894531 195.09375 C 350.511719 189.265625 346.363281 177.613281 346.363281 177.613281 Z M 336.386719 185.292969 " fill-opacity="1" fill-rule="nonzero"/><path fill="#000000" d="M 325 154.660156 L 331.445312 175.316406 L 336.125 185.734375 L 348.660156 180.96875 C 348.660156 180.96875 342.304688 162.871094 339.476562 159.074219 C 338.949219 158.367188 338.066406 157.660156 337.007812 157.21875 C 332.59375 155.101562 325 154.660156 325 154.660156 Z M 325 154.660156 " fill-opacity="1" fill-rule="nonzero"/><path fill="#000000" d="M 331.445312 175.40625 L 336.125 185.824219 L 348.660156 181.054688 C 348.660156 181.054688 342.304688 162.957031 339.476562 159.160156 C 338.949219 158.453125 338.066406 157.75 337.007812 157.308594 C 330.207031 159.515625 331.445312 175.40625 331.445312 175.40625 Z M 331.445312 175.40625 " fill-opacity="1" fill-rule="nonzero"/><path fill="#000000" d="M 307.960938 131.882812 C 307.875 133.648438 308.578125 135.324219 310.167969 136.296875 C 311.757812 137.179688 313.613281 137.089844 315.199219 136.382812 C 316.878906 135.679688 318.644531 134.707031 320.410156 135.589844 C 322.882812 136.824219 320.9375 140.796875 320.9375 142.742188 L 320.9375 142.828125 C 321.378906 143.003906 321.910156 143.269531 322.351562 143.445312 C 322.617188 142.035156 323.058594 140.621094 323.941406 140.710938 C 325.265625 140.796875 323.851562 147.15625 324.117188 147.242188 C 324.292969 147.242188 325.792969 145.035156 326.855469 142.121094 C 327.03125 141.59375 327.207031 140.976562 327.382812 140.355469 C 328.355469 136.382812 328 130.203125 323.234375 128.96875 C 321.203125 128.4375 319.261719 127.910156 317.320312 127.113281 C 315.464844 126.230469 313.613281 125.261719 311.492188 126.054688 C 309.640625 126.851562 308.136719 129.410156 307.960938 131.882812 Z M 307.960938 131.882812 " fill-opacity="1" fill-rule="nonzero"/><path fill="#ecc351" d="M 347.246094 189.882812 C 348.394531 190.414062 349.1875 191.648438 349.277344 192.972656 C 350.25 203.214844 334.535156 239.320312 332.414062 237.113281 C 330.5625 236.320312 338.332031 185.734375 347.246094 189.882812 Z M 347.246094 189.882812 " fill-opacity="1" fill-rule="nonzero"/><path fill="#ecc351" d="M 332.679688 231.023438 L 332.503906 230.492188 L 331.53125 231.199219 L 329.945312 232.613281 C 329.503906 232.964844 329.238281 233.40625 329.0625 233.9375 L 328.796875 236.320312 C 328.796875 236.320312 329.238281 236.9375 329.765625 235.613281 C 329.855469 235.261719 330.386719 234.90625 330.738281 234.730469 L 330.386719 236.054688 L 329.855469 239.320312 C 329.679688 240.117188 330.207031 241.265625 331.179688 241.527344 C 331.179688 241.527344 332.59375 241.707031 333.476562 240.382812 L 334.800781 238.617188 C 335.328125 237.554688 335.945312 236.851562 336.035156 235.703125 L 336.035156 232.523438 Z M 332.679688 231.023438 " fill-opacity="1" fill-rule="nonzero"/><path fill="#ecc351" d="M 287.304688 186.527344 C 286.15625 187.234375 284.742188 187.234375 283.59375 186.617188 C 274.414062 182.027344 255.257812 153.511719 258.171875 152.011719 C 260.023438 151.128906 295.601562 181.230469 287.304688 186.527344 Z M 287.304688 186.527344 " fill-opacity="1" fill-rule="nonzero"/><path fill="#ecc351" d="M 262.230469 154.660156 L 262.761719 154.835938 L 262.671875 153.597656 L 262.320312 151.480469 C 262.230469 150.949219 262.054688 150.421875 261.703125 149.980469 L 259.847656 148.480469 C 259.847656 148.480469 259.140625 148.566406 259.9375 149.625 C 260.113281 149.890625 260.199219 150.507812 260.199219 150.949219 L 259.230469 149.980469 L 256.757812 147.773438 C 256.140625 147.242188 254.902344 146.976562 254.199219 147.683594 C 254.199219 147.683594 253.316406 148.742188 253.933594 150.246094 L 254.726562 152.363281 C 255.34375 153.335938 255.609375 154.304688 256.492188 155.011719 L 259.230469 156.6875 Z M 262.230469 154.660156 " fill-opacity="1" fill-rule="nonzero"/><path fill="#000000" d="M 314.230469 152.714844 L 314.230469 152.804688 C 315.730469 152.1875 317.144531 151.570312 317.847656 150.949219 C 319.96875 149.097656 322.527344 143.445312 322.527344 143.445312 L 321.117188 142.828125 C 321.117188 142.828125 319.613281 146.890625 316.789062 146.890625 C 314.140625 146.800781 311.492188 145.300781 309.902344 146.183594 C 309.816406 150.773438 310.433594 153.6875 314.230469 152.714844 Z M 314.230469 152.714844 " fill-opacity="1" fill-rule="nonzero"/><path fill="#ecc351" d="M 314.054688 148.921875 C 314.054688 148.832031 312.816406 148.039062 311.40625 148.125 C 310.964844 148.125 310.34375 148.742188 310.167969 149.097656 C 310.167969 149.097656 312.550781 150.597656 314.054688 148.921875 Z M 314.054688 148.921875 " fill-opacity="1" fill-rule="nonzero"/><path fill="#ecc351" d="M 197.695312 110.429688 C 214.382812 114.3125 227.359375 120.230469 226.566406 123.761719 C 225.859375 127.203125 211.644531 126.9375 194.960938 123.054688 C 178.273438 119.167969 165.296875 113.253906 166.089844 109.722656 C 166.886719 106.191406 181.011719 106.546875 197.695312 110.429688 Z M 197.695312 110.429688 " fill-opacity="1" fill-rule="nonzero"/><path fill="#ecc351" d="M 222.328125 120.671875 C 232.65625 116.699219 222.59375 161.632812 217.914062 172.492188 C 213.234375 183.4375 213.585938 170.902344 215.351562 152.097656 C 217.03125 133.292969 218.265625 122.257812 222.328125 120.671875 Z M 222.328125 120.671875 " fill-opacity="1" fill-rule="nonzero"/><path fill="#ecc351" d="M 211.027344 174.523438 L 211.378906 168.34375 L 219.679688 169.753906 L 218 176.730469 L 216.765625 180.171875 L 211.910156 178.847656 Z M 211.027344 174.523438 " fill-opacity="1" fill-rule="nonzero"/><path fill="#000000" d="M 211.027344 173.726562 C 211.027344 173.726562 213.144531 179.023438 218.089844 176.554688 C 218.089844 176.554688 226.386719 180.261719 225.945312 182.203125 C 225.503906 184.144531 221.179688 182.644531 221.179688 182.644531 L 209.171875 179.730469 C 209.171875 179.820312 209.351562 176.730469 211.027344 173.726562 Z M 211.027344 173.726562 " fill-opacity="1" fill-rule="nonzero"/><path fill="#ecc351" d="M 183.835938 119.347656 C 196.371094 131.175781 204.496094 142.828125 202.109375 145.390625 C 199.640625 147.949219 187.542969 140.445312 175.007812 128.617188 C 162.472656 116.785156 154.351562 105.132812 156.734375 102.570312 C 159.207031 100.011719 171.300781 107.515625 183.835938 119.347656 Z M 183.835938 119.347656 " fill-opacity="1" fill-rule="nonzero"/><path fill="#ecc351" d="M 199.992188 141.0625 C 210.9375 142.828125 178.097656 177.613281 168.386719 184.675781 C 158.675781 191.738281 165.472656 181.144531 176.773438 165.78125 C 188.074219 150.507812 195.667969 140.355469 199.992188 141.0625 Z M 199.992188 141.0625 " fill-opacity="1" fill-rule="nonzero"/><path fill="#ecc351" d="M 162.382812 179.90625 L 166.621094 174.789062 L 173.332031 179.730469 L 167.855469 185.117188 L 164.945312 186.527344 L 161.058594 182.46875 Z M 162.382812 179.90625 " fill-opacity="1" fill-rule="nonzero"/><path fill="#000000" d="M 162.382812 179.90625 C 162.382812 179.90625 162.382812 185.558594 167.855469 185.117188 C 167.855469 185.117188 174.125 191.648438 173.066406 193.328125 C 171.917969 195.003906 168.476562 192.003906 168.476562 192.003906 L 158.410156 184.941406 C 158.410156 184.851562 159.734375 182.113281 162.382812 179.90625 Z M 162.382812 179.90625 " fill-opacity="1" fill-rule="nonzero"/><path fill="#000000" d="M 186.484375 104.425781 C 186.484375 104.425781 226.566406 114.753906 228.59375 122.699219 C 229.476562 126.144531 219.945312 170.285156 219.945312 170.285156 L 211.117188 168.785156 L 212.351562 129.5 L 172.183594 123.320312 L 165.296875 104.957031 Z M 186.484375 104.425781 " fill-opacity="1" fill-rule="nonzero"/><path fill="#000000" d="M 155.761719 107.515625 C 155.761719 107.515625 151.523438 117.757812 159.648438 125.085938 C 167.855469 132.410156 186.21875 143.625 186.21875 143.625 L 164.503906 176.023438 L 172.449219 182.996094 C 172.449219 182.996094 202.816406 154.835938 203.257812 144.328125 C 203.789062 133.824219 178.273438 106.988281 178.273438 106.988281 Z M 155.761719 107.515625 " fill-opacity="1" fill-rule="nonzero"/><path fill="#ecc351" d="M 205.90625 80.941406 C 205.90625 80.941406 200.964844 86.945312 195.578125 90.832031 C 193.460938 92.332031 191.78125 94.007812 189.929688 93.921875 C 186.835938 85.710938 193.105469 81.472656 193.105469 81.472656 C 193.105469 81.472656 198.84375 77.941406 203.875 75.558594 C 203.875 75.558594 204.9375 75.734375 206.261719 76.96875 C 207.671875 78.207031 205.90625 80.941406 205.90625 80.941406 Z M 205.90625 80.941406 " fill-opacity="1" fill-rule="nonzero"/><path fill="#a3e635" d="M 189.929688 93.921875 C 187.101562 93.832031 184.984375 92.242188 184.71875 90.917969 C 184.277344 88.800781 184.542969 70.613281 184.542969 70.613281 L 186.484375 59.933594 L 185.511719 55.339844 C 185.511719 55.339844 190.546875 56.222656 191.164062 58.960938 C 191.78125 61.699219 192.753906 80.765625 193.105469 81.472656 C 193.105469 81.382812 186.925781 85.621094 189.929688 93.921875 Z M 189.929688 93.921875 " fill-opacity="1" fill-rule="nonzero"/><path fill="#000000" d="M 167.679688 36.09375 C 169.886719 36.09375 172.007812 28.238281 169.886719 26.207031 C 169.886719 26.207031 161.675781 22.5 157.882812 26.738281 C 154.085938 30.976562 154.96875 37.066406 155.054688 40.421875 C 155.144531 43.777344 155.585938 48.453125 149.757812 50.398438 C 143.933594 52.339844 130.070312 58.609375 131.042969 68.140625 C 132.015625 77.675781 146.492188 85.976562 158.941406 79.882812 C 171.386719 73.792969 172.625 62.757812 173.066406 56.402344 C 173.507812 50.042969 173.859375 44.746094 171.742188 42.714844 C 169.710938 40.597656 167.679688 36.09375 167.679688 36.09375 Z M 167.679688 36.09375 " fill-opacity="1" fill-rule="nonzero"/><path fill="#ecc351" d="M 164.765625 59.667969 L 165.03125 57.019531 L 164.765625 46.335938 L 174.832031 47.394531 L 175.539062 59.050781 L 169.886719 64.789062 Z M 164.765625 59.667969 " fill-opacity="1" fill-rule="nonzero"/><path fill="#ecc351" d="M 159.292969 39.804688 C 159.292969 39.804688 162.382812 46.777344 166.886719 48.894531 C 171.386719 51.015625 174.742188 50.664062 176.507812 49.691406 C 178.363281 48.71875 177.746094 41.480469 177.125 39.097656 C 176.507812 36.714844 174.65625 31.769531 173.066406 30.269531 C 171.476562 28.855469 165.121094 26.5625 162.296875 29.121094 C 159.382812 31.859375 158.410156 35.742188 159.292969 39.804688 Z M 159.292969 39.804688 " fill-opacity="1" fill-rule="nonzero"/><path stroke-linecap="round" transform="matrix(0.882825, 0, 0, 0.882825, -16.741569, -11.135632)" fill="none" stroke-linejoin="round" d="M 210.801627 69.099561 C 213.500704 69.900434 215.699788 69.900434 217.301535 69.50221 " stroke="#263156" stroke-width="0.297" stroke-opacity="1" stroke-miterlimit="10"/><path fill="#000000" d="M 160.351562 42.628906 L 162.472656 42.714844 L 163.441406 42.539062 C 163.441406 42.539062 163.179688 38.039062 163.621094 35.125 C 163.621094 35.125 169.003906 37.417969 174.566406 34.769531 C 178.097656 33.09375 176.597656 28.238281 174.832031 26.914062 C 172.449219 25.058594 169.800781 26.207031 169.800781 26.207031 L 166.886719 27.089844 L 161.589844 27.886719 L 157.96875 32.035156 L 157.882812 36.976562 Z M 160.351562 42.628906 " fill-opacity="1" fill-rule="nonzero"/><path fill="#000000" d="M 160.617188 40.949219 L 162.382812 41.570312 C 162.382812 41.570312 163.265625 37.949219 163.707031 35.035156 " fill-opacity="1" fill-rule="nonzero"/><path fill="#ecc351" d="M 163.265625 42.539062 C 163.265625 42.539062 161.414062 40.773438 160.265625 41.390625 C 159.117188 42.011719 160.617188 44.128906 161.058594 44.660156 C 161.675781 45.363281 162.738281 46.511719 163.53125 45.71875 " fill-opacity="1" fill-rule="nonzero"/><path fill="#000000" d="M 162.558594 42.894531 C 162.558594 42.894531 160.089844 41.65625 161.058594 43.15625 C 161.675781 44.039062 161.941406 44.394531 163.089844 44.921875 " fill-opacity="1" fill-rule="nonzero"/><path fill="#a3e635" d="M 185.25 83.503906 C 184.71875 77.675781 189.398438 59.753906 185.511719 55.339844 C 183.21875 54.195312 175.359375 52.957031 175.359375 52.957031 C 174.65625 55.253906 174.566406 56.664062 172.890625 57.902344 C 171.300781 58.960938 168.210938 57.902344 164.945312 53.132812 L 156.910156 54.8125 C 156.910156 54.8125 154.792969 63.023438 154.703125 69.464844 C 154.613281 75.824219 155.9375 87.652344 155.851562 92.507812 C 155.675781 104.25 154.96875 107.25 155.496094 107.957031 C 156.558594 109.195312 166.355469 108.574219 174.832031 107.957031 C 175.183594 107.957031 175.625 106.808594 175.980469 106.808594 C 176.421875 106.808594 176.949219 107.871094 177.390625 107.871094 C 182.953125 107.605469 186.574219 104.777344 186.660156 104.515625 C 186.925781 103.632812 185.511719 87.917969 185.25 83.503906 Z M 185.25 83.503906 " fill-opacity="1" fill-rule="nonzero"/><path fill="#000000" d="M 173.332031 65.230469 C 173.332031 65.421875 173.261719 65.589844 173.125 65.726562 C 172.984375 65.867188 172.820312 65.933594 172.625 65.933594 C 172.429688 65.933594 172.261719 65.867188 172.125 65.726562 C 171.988281 65.589844 171.917969 65.421875 171.917969 65.230469 C 171.917969 65.035156 171.988281 64.867188 172.125 64.730469 C 172.261719 64.589844 172.429688 64.523438 172.625 64.523438 C 172.820312 64.523438 172.984375 64.589844 173.125 64.730469 C 173.261719 64.867188 173.332031 65.035156 173.332031 65.230469 Z M 173.332031 65.230469 " fill-opacity="1" fill-rule="nonzero"/><path fill="#000000" d="M 174.125 71.230469 C 174.125 71.425781 174.054688 71.59375 173.917969 71.730469 C 173.78125 71.871094 173.613281 71.9375 173.417969 71.9375 C 173.222656 71.9375 173.058594 71.871094 172.917969 71.730469 C 172.78125 71.59375 172.710938 71.425781 172.710938 71.230469 C 172.710938 71.035156 172.78125 70.871094 172.917969 70.734375 C 173.058594 70.59375 173.222656 70.527344 173.417969 70.527344 C 173.613281 70.527344 173.78125 70.59375 173.917969 70.734375 C 174.054688 70.871094 174.125 71.035156 174.125 71.230469 Z M 174.125 71.230469 " fill-opacity="1" fill-rule="nonzero"/><path fill="#000000" d="M 174.390625 76.882812 C 174.390625 77.078125 174.320312 77.242188 174.183594 77.382812 C 174.046875 77.519531 173.878906 77.589844 173.683594 77.589844 C 173.488281 77.589844 173.324219 77.519531 173.183594 77.382812 C 173.046875 77.242188 172.976562 77.078125 172.976562 76.882812 C 172.976562 76.6875 173.046875 76.519531 173.183594 76.382812 C 173.320312 76.246094 173.488281 76.175781 173.683594 76.175781 C 173.878906 76.175781 174.046875 76.246094 174.183594 76.382812 C 174.320312 76.519531 174.390625 76.6875 174.390625 76.882812 Z M 174.390625 76.882812 " fill-opacity="1" fill-rule="nonzero"/><path fill="#000000" d="M 174.390625 83.769531 C 174.390625 83.964844 174.320312 84.128906 174.183594 84.265625 C 174.046875 84.40625 173.878906 84.472656 173.683594 84.472656 C 173.488281 84.472656 173.324219 84.40625 173.183594 84.265625 C 173.046875 84.128906 172.976562 83.964844 172.976562 83.769531 C 172.976562 83.574219 173.046875 83.40625 173.183594 83.269531 C 173.320312 83.128906 173.488281 83.0625 173.683594 83.0625 C 173.878906 83.0625 174.046875 83.128906 174.183594 83.269531 C 174.320312 83.40625 174.390625 83.574219 174.390625 83.769531 Z M 174.390625 83.769531 " fill-opacity="1" fill-rule="nonzero"/><path fill="#000000" d="M 174.390625 90.390625 C 174.390625 90.585938 174.320312 90.75 174.183594 90.886719 C 174.046875 91.027344 173.878906 91.09375 173.683594 91.09375 C 173.488281 91.09375 173.324219 91.027344 173.183594 90.886719 C 173.046875 90.75 172.976562 90.585938 172.976562 90.390625 C 172.976562 90.195312 173.046875 90.027344 173.183594 89.890625 C 173.320312 89.75 173.488281 89.683594 173.683594 89.683594 C 173.878906 89.683594 174.046875 89.75 174.183594 89.890625 C 174.320312 90.027344 174.390625 90.195312 174.390625 90.390625 Z M 174.390625 90.390625 " fill-opacity="1" fill-rule="nonzero"/><path fill="#000000" d="M 174.390625 97.363281 C 174.390625 97.558594 174.320312 97.726562 174.183594 97.863281 C 174.046875 98 173.878906 98.070312 173.683594 98.070312 C 173.488281 98.070312 173.324219 98 173.183594 97.863281 C 173.046875 97.726562 172.976562 97.558594 172.976562 97.363281 C 172.976562 97.167969 173.046875 97.003906 173.183594 96.863281 C 173.320312 96.726562 173.488281 96.65625 173.683594 96.65625 C 173.878906 96.65625 174.046875 96.726562 174.183594 96.863281 C 174.320312 97.003906 174.390625 97.167969 174.390625 97.363281 Z M 174.390625 97.363281 " fill-opacity="1" fill-rule="nonzero"/><path fill="#000000" d="M 174.65625 103.367188 C 174.65625 103.5625 174.585938 103.726562 174.449219 103.867188 C 174.308594 104.003906 174.144531 104.074219 173.949219 104.074219 C 173.753906 104.074219 173.585938 104.003906 173.449219 103.867188 C 173.3125 103.726562 173.242188 103.5625 173.242188 103.367188 C 173.242188 103.171875 173.3125 103.003906 173.449219 102.867188 C 173.585938 102.730469 173.753906 102.660156 173.949219 102.660156 C 174.144531 102.660156 174.308594 102.730469 174.449219 102.867188 C 174.585938 103.003906 174.65625 103.171875 174.65625 103.367188 Z M 174.65625 103.367188 " fill-opacity="1" fill-rule="nonzero"/><path stroke-linecap="round" transform="matrix(0.882825, 0, 0, 0.882825, -16.741569, -11.135632)" fill="none" stroke-linejoin="round" d="M 231.000456 85.599327 C 230.301351 91.599242 228.301379 101.700869 230.097814 117.297994 " stroke="#263156" stroke-width="0.297" stroke-opacity="1" stroke-miterlimit="10"/><path fill="#a3e635" d="M 164.855469 51.808594 C 164.855469 51.808594 167.769531 56.3125 172.890625 57.902344 C 172.890625 57.902344 170.503906 60.636719 170.242188 60.902344 C 169.976562 61.167969 162.558594 53.753906 162.558594 53.753906 Z M 164.855469 51.808594 " fill-opacity="1" fill-rule="nonzero"/><path stroke-linecap="round" transform="matrix(0.882825, 0, 0, 0.882825, -16.741569, -11.135632)" fill="none" stroke-linejoin="round" d="M 214.80157 78.201202 C 214.80157 78.201202 212.098069 81.298503 211.801613 81.599384 C 211.500732 81.900265 203.098196 73.502153 203.098196 73.502153 " stroke="#263156" stroke-width="0.297" stroke-opacity="1" stroke-miterlimit="10"/><path fill="#a3e635" d="M 172.890625 57.902344 L 175.273438 52.074219 L 178.007812 53.488281 C 178.007812 53.488281 176.863281 58.078125 175.890625 60.285156 Z M 172.890625 57.902344 " fill-opacity="1" fill-rule="nonzero"/><path stroke-linecap="round" transform="matrix(0.882825, 0, 0, 0.882825, -16.741569, -11.135632)" fill="none" stroke-linejoin="round" d="M 220.500605 73.201273 C 220.500605 73.201273 219.199738 78.400314 218.097984 80.900279 L 214.699802 78.201202 " stroke="#263156" stroke-width="0.297" stroke-opacity="1" stroke-miterlimit="10"/><path stroke-linecap="round" transform="matrix(0.882825, 0, 0, 0.882825, -16.741569, -11.135632)" fill="none" stroke-linejoin="round" d="M 214.898914 78.701195 C 214.898914 78.701195 217.301535 90.701025 217.398879 95.298305 C 217.500647 99.90001 217.301535 110.298093 217.500647 116.899769 C 217.801528 123.399678 218.301521 133.501305 218.301521 133.501305 " stroke="#263156" stroke-width="0.297" stroke-opacity="1" stroke-miterlimit="10"/><path fill="#ecc351" d="M 154.703125 87.742188 L 168.738281 93.039062 L 168.035156 99.21875 C 168.035156 99.21875 155.320312 96.921875 150.378906 95.6875 C 145.433594 94.449219 144.816406 93.65625 144.816406 93.65625 L 143.933594 88.625 L 148.347656 83.855469 C 148.347656 83.855469 151.4375 84.121094 151.523438 84.386719 C 151.613281 84.652344 154.703125 87.742188 154.703125 87.742188 Z M 154.703125 87.742188 " fill-opacity="1" fill-rule="nonzero"/><path fill="#ecc351" d="M 170.769531 102.835938 C 170.59375 102.128906 170.152344 101.425781 168.121094 99.921875 C 166.886719 98.953125 165.472656 96.832031 165.121094 96.214844 L 168.652344 92.949219 C 169.535156 93.480469 171.476562 93.832031 172.710938 94.273438 C 174.300781 94.804688 176.332031 95.15625 176.949219 96.390625 C 178.007812 98.421875 178.890625 101.160156 178.097656 101.511719 C 177.304688 101.867188 176.066406 99.480469 176.066406 99.480469 C 176.066406 99.480469 176.507812 100.894531 175.714844 101.425781 C 175.007812 101.953125 173.949219 101.335938 173.949219 101.335938 C 173.773438 102.394531 172.359375 102.21875 172.359375 102.21875 C 172.183594 103.277344 170.945312 103.367188 170.769531 102.835938 Z M 170.769531 102.835938 " fill-opacity="1" fill-rule="nonzero"/><path fill="#a3e635" d="M 156.910156 54.8125 C 156.910156 54.8125 149.757812 55.519531 148.171875 63.550781 C 146.582031 71.585938 140.84375 89.859375 144.902344 93.65625 C 144.902344 93.65625 145.082031 83.769531 154.792969 87.742188 L 156.734375 74.941406 L 157.527344 58.429688 Z M 156.910156 54.8125 " fill-opacity="1" fill-rule="nonzero"/><path stroke-linecap="round" transform="matrix(0.882825, 0, 0, 0.882825, -16.741569, -11.135632)" fill="none" stroke-linejoin="round" d="M 193.500987 111.200735 C 193.500987 111.200735 191.098366 109.298107 188.001064 108.798114 " stroke="#263156" stroke-width="0.297" stroke-opacity="1" stroke-miterlimit="10"/><path stroke-linecap="round" transform="matrix(0.882825, 0, 0, 0.882825, -16.741569, -11.135632)" fill="none" stroke-linejoin="round" d="M 190.501029 109.598988 C 190.501029 109.598988 188.098408 109.298107 186.399317 110.298093 " stroke="#263156" stroke-width="0.297" stroke-opacity="1" stroke-miterlimit="10"/><path stroke-linecap="round" transform="matrix(0.882825, 0, 0, 0.882825, -16.741569, -11.135632)" fill="none" stroke-linejoin="round" d="M 195.000965 106.700799 L 194.700085 91.501899 " stroke="#263156" stroke-width="0.297" stroke-opacity="1" stroke-miterlimit="10"/><path fill="#ecc351" d="M 203.875 75.46875 C 203.875 75.46875 206.261719 73.175781 207.320312 72.910156 C 208.378906 72.644531 209.792969 72.292969 210.9375 72.027344 C 212.085938 71.761719 212.96875 71.144531 213.144531 72.027344 C 213.324219 72.910156 210.410156 73.96875 210.410156 73.96875 C 210.410156 73.96875 212.175781 74.058594 214.46875 73.527344 C 216.765625 72.996094 219.324219 72.027344 219.414062 72.734375 C 219.503906 73.4375 219.414062 73.617188 219.414062 73.617188 C 219.414062 73.617188 220.472656 73.617188 220.5625 74.058594 C 220.648438 74.585938 219.855469 75.117188 219.855469 75.117188 C 219.855469 75.117188 220.296875 75.824219 220.03125 76.175781 C 219.765625 76.527344 216.675781 78.382812 214.207031 79 C 214.207031 79 218.707031 78.117188 218.707031 78.292969 C 218.707031 78.558594 218 79.53125 214.648438 80.238281 C 211.292969 80.941406 205.820312 80.941406 205.820312 80.941406 Z M 203.875 75.46875 " fill-opacity="1" fill-rule="nonzero"/><path stroke-linecap="round" transform="matrix(0.882825, 0, 0, 0.882825, -16.741569, -11.135632)" fill="none" stroke-linejoin="round" d="M 267.999933 97.700926 C 267.999933 97.700926 265.999961 98.700912 263.999989 99.298249 C 261.898249 100.001778 259.101828 100.798227 259.101828 100.798227 " stroke="#263156" stroke-width="0.297" stroke-opacity="1" stroke-miterlimit="10"/><path stroke-linecap="round" transform="matrix(0.882825, 0, 0, 0.882825, -16.741569, -11.135632)" fill="none" stroke-linejoin="round" d="M 267.601708 96.001835 C 267.601708 96.001835 262.699123 97.599158 258.800948 98.700912 " stroke="#263156" stroke-width="0.297" stroke-opacity="1" stroke-miterlimit="10"/><path fill="#a3e635" d="M 303.195312 101.777344 L 237.160156 101.777344 C 236.011719 101.777344 235.039062 100.804688 235.039062 99.660156 L 235.039062 59.3125 C 235.039062 58.167969 236.011719 57.195312 237.160156 57.195312 L 303.195312 57.195312 C 304.34375 57.195312 305.3125 58.167969 305.3125 59.3125 L 305.3125 99.746094 C 305.226562 100.894531 304.34375 101.777344 303.195312 101.777344 Z M 303.195312 101.777344 " fill-opacity="1" fill-rule="nonzero"/><path fill="#dae4fe" d="M 239.984375 88.445312 L 245.371094 83.0625 C 248.722656 79.707031 254.285156 79.707031 257.640625 83.0625 L 261.613281 87.035156 C 261.789062 87.210938 262.144531 87.210938 262.40625 87.035156 L 276.710938 72.734375 C 279.003906 70.4375 282.800781 70.4375 285.183594 72.734375 L 300.371094 87.917969 C 300.457031 88.003906 300.546875 88.183594 300.546875 88.269531 L 300.546875 97.363281 C 300.546875 97.628906 300.28125 97.894531 300.015625 97.894531 L 240.425781 97.894531 C 240.160156 97.894531 239.894531 97.628906 239.894531 97.363281 L 239.894531 88.800781 C 239.808594 88.710938 239.894531 88.535156 239.984375 88.445312 Z M 239.984375 88.445312 " fill-opacity="1" fill-rule="nonzero"/><path fill="#dae4fe" d="M 254.902344 74.144531 C 254.902344 74.625 254.8125 75.085938 254.628906 75.53125 C 254.445312 75.972656 254.183594 76.367188 253.84375 76.703125 C 253.503906 77.042969 253.113281 77.304688 252.667969 77.488281 C 252.226562 77.671875 251.765625 77.765625 251.285156 77.765625 C 250.804688 77.765625 250.34375 77.671875 249.898438 77.488281 C 249.457031 77.304688 249.0625 77.042969 248.726562 76.703125 C 248.386719 76.367188 248.125 75.972656 247.941406 75.53125 C 247.757812 75.085938 247.664062 74.625 247.664062 74.144531 C 247.664062 73.664062 247.757812 73.203125 247.941406 72.761719 C 248.125 72.316406 248.386719 71.925781 248.726562 71.585938 C 249.0625 71.246094 249.457031 70.984375 249.898438 70.800781 C 250.34375 70.617188 250.804688 70.527344 251.285156 70.527344 C 251.765625 70.527344 252.226562 70.617188 252.667969 70.800781 C 253.113281 70.984375 253.503906 71.246094 253.84375 71.585938 C 254.183594 71.925781 254.445312 72.316406 254.628906 72.761719 C 254.8125 73.203125 254.902344 73.664062 254.902344 74.144531 Z M 254.902344 74.144531 " fill-opacity="1" fill-rule="nonzero"/><path fill="#000000" d="M 126.097656 133.382812 L 84.253906 133.382812 C 83.460938 133.382812 82.929688 132.765625 82.929688 132.058594 L 82.929688 102.75 C 82.929688 101.953125 83.546875 101.425781 84.253906 101.425781 L 126.097656 101.425781 C 126.894531 101.425781 127.421875 102.042969 127.421875 102.75 L 127.421875 131.96875 C 127.511719 132.765625 126.894531 133.382812 126.097656 133.382812 Z M 126.097656 133.382812 " fill-opacity="1" fill-rule="nonzero"/><path fill="#dae4fe" d="M 114.445312 116.699219 L 99.4375 108.046875 C 98.910156 107.78125 98.289062 108.132812 98.289062 108.664062 L 98.289062 125.96875 C 98.289062 126.496094 98.910156 126.9375 99.4375 126.585938 L 114.445312 117.933594 C 114.886719 117.667969 114.886719 116.960938 114.445312 116.699219 Z M 114.445312 116.699219 " fill-opacity="1" fill-rule="nonzero"/><path fill="#dae4fe" d="M 15.746094 157.128906 L 43.203125 157.128906 L 51.148438 162.164062 L 51.148438 157.128906 L 53 157.128906 C 53.621094 157.128906 54.148438 156.601562 54.148438 155.984375 L 54.148438 131.792969 C 54.148438 131.175781 53.621094 130.644531 53 130.644531 L 15.746094 130.644531 C 15.128906 130.644531 14.597656 131.175781 14.597656 131.792969 L 14.597656 155.984375 C 14.597656 156.601562 15.039062 157.128906 15.746094 157.128906 Z M 40.820312 143.886719 C 40.820312 142.742188 41.789062 141.769531 42.9375 141.769531 C 44.085938 141.769531 45.054688 142.742188 45.054688 143.886719 C 45.054688 145.035156 44.085938 146.007812 42.9375 146.007812 C 41.703125 146.007812 40.820312 145.035156 40.820312 143.886719 Z M 32.167969 143.886719 C 32.167969 142.742188 33.136719 141.769531 34.285156 141.769531 C 35.433594 141.769531 36.40625 142.742188 36.40625 143.886719 C 36.40625 145.035156 35.433594 146.007812 34.285156 146.007812 C 33.136719 146.007812 32.167969 145.035156 32.167969 143.886719 Z M 23.605469 143.886719 C 23.605469 142.742188 24.574219 141.769531 25.722656 141.769531 C 26.871094 141.769531 27.839844 142.742188 27.839844 143.886719 C 27.839844 145.035156 26.871094 146.007812 25.722656 146.007812 C 24.488281 146.007812 23.605469 145.035156 23.605469 143.886719 Z M 23.605469 143.886719 " fill-opacity="1" fill-rule="nonzero"/><path fill="#dae4fe" d="M 374.792969 122.964844 L 374.792969 98.777344 C 374.792969 98.15625 374.261719 97.628906 373.644531 97.628906 L 336.386719 97.628906 C 335.769531 97.628906 335.242188 98.15625 335.242188 98.777344 L 335.242188 122.964844 C 335.242188 123.582031 335.769531 124.113281 336.386719 124.113281 L 338.242188 124.113281 L 338.242188 129.144531 L 346.1875 124.113281 L 373.644531 124.113281 C 374.261719 124.113281 374.792969 123.582031 374.792969 122.964844 Z M 346.453125 113.078125 C 345.304688 113.078125 344.332031 112.105469 344.332031 110.960938 C 344.332031 109.8125 345.304688 108.839844 346.453125 108.839844 C 347.601562 108.839844 348.570312 109.8125 348.570312 110.960938 C 348.570312 112.105469 347.601562 113.078125 346.453125 113.078125 Z M 355.015625 113.078125 C 353.867188 113.078125 352.898438 112.105469 352.898438 110.960938 C 352.898438 109.8125 353.867188 108.839844 355.015625 108.839844 C 356.253906 108.839844 357.136719 109.8125 357.136719 110.960938 C 357.136719 112.105469 356.253906 113.078125 355.015625 113.078125 Z M 363.578125 113.078125 C 362.433594 113.078125 361.460938 112.105469 361.460938 110.960938 C 361.460938 109.8125 362.433594 108.839844 363.578125 108.839844 C 364.816406 108.839844 365.699219 109.8125 365.699219 110.960938 C 365.699219 112.105469 364.816406 113.078125 363.578125 113.078125 Z M 363.578125 113.078125 " fill-opacity="1" fill-rule="nonzero"/><path fill="#dae4fe" d="M 231.773438 36.714844 C 229.300781 33.445312 225.945312 34.683594 223.296875 38.65625 C 220.648438 34.683594 215.972656 31.769531 213.585938 35.035156 C 209.878906 40.066406 223.296875 54.636719 223.296875 54.636719 C 223.296875 54.636719 235.480469 41.746094 231.773438 36.714844 Z M 231.773438 36.714844 " fill-opacity="1" fill-rule="nonzero"/><path fill="#000000" d="M 366.933594 151.570312 C 364.640625 148.480469 361.550781 149.714844 359.078125 153.421875 C 356.605469 149.714844 352.277344 147.066406 350.070312 150.066406 C 346.628906 154.746094 359.078125 168.34375 359.078125 168.34375 C 359.078125 168.34375 370.378906 156.246094 366.933594 151.570312 Z M 366.933594 151.570312 " fill-opacity="1" fill-rule="nonzero"/><path stroke-linecap="butt" transform="matrix(0.882825, 0, 0, 0.882825, -16.741569, -11.135632)" fill="none" stroke-linejoin="miter" d="M 398.599855 219.800969 L 393.799038 207.398489 " stroke="#dae4fe" stroke-width="0.25" stroke-opacity="1" stroke-miterlimit="10"/><path stroke-linecap="butt" transform="matrix(0.882825, 0, 0, 0.882825, -16.741569, -11.135632)" fill="none" stroke-linejoin="miter" d="M 358.799533 214.601927 L 358.799533 206.30116 " stroke="#dae4fe" stroke-width="0.25" stroke-opacity="1" stroke-miterlimit="10"/><path stroke-linecap="round" transform="matrix(0.882825, 0, 0, 0.882825, -16.741569, -11.135632)" fill="none" stroke-linejoin="round" d="M 99.201436 232.999897 L 100.599646 223.6018 " stroke="#263156" stroke-width="0.297" stroke-opacity="1" stroke-miterlimit="10"/><path stroke-linecap="round" transform="matrix(0.882825, 0, 0, 0.882825, -16.741569, -11.135632)" fill="none" stroke-linejoin="round" d="M 127.900145 233.999883 L 128.400138 227.800855 " stroke="#263156" stroke-width="0.297" stroke-opacity="1" stroke-miterlimit="10"/></svg>